<?xml version="1.0" encoding="UTF-8" standalone="no" ?>
<!DOCTYPE svg PUBLIC "-//W3C//DTD SVG 1.1//EN" "http://www.w3.org/Graphics/SVG/1.1/DTD/svg11.dtd">
<svg xmlns="http://www.w3.org/2000/svg" xmlns:xlink="http://www.w3.org/1999/xlink" version="1.1" width="1280" height="1024" viewBox="0 0 1280 1024" xml:space="preserve">
<desc>Created with Fabric.js 5.3.0</desc>
<defs>
</defs>
<g transform="matrix(1 0 0 1 640 512)" id="background-logo"  >
<rect style="stroke: none; stroke-width: 0; stroke-dasharray: none; stroke-linecap: butt; stroke-dashoffset: 0; stroke-linejoin: miter; stroke-miterlimit: 4; fill: rgb(255,255,255); fill-opacity: 0; fill-rule: nonzero; opacity: 1;"  paint-order="stroke"  x="-640" y="-512" rx="0" ry="0" width="1280" height="1024" />
</g>
<g transform="matrix(1.9211538461538462 0 0 1.9211538461538462 640 411.2835096153847)" id="logo-logo"  >
<g style=""  paint-order="stroke"   >
		<g transform="matrix(0.6147208173257124 0 0 0.6147208173257124 0.0000122329443001945 -2.842171e-14)"  >
<path style="stroke: none; stroke-width: 1; stroke-dasharray: none; stroke-linecap: butt; stroke-dashoffset: 0; stroke-linejoin: miter; stroke-miterlimit: 4; fill: rgb(29,107,170); fill-rule: nonzero; opacity: 1;"  paint-order="stroke"  transform=" translate(-360.0000199, -360.00000005000004)" d="M 468.8019155 486.1596946 L 468.7773756 486.1596946 C 448.7231788 496.9213444 425.7765643 503.0024546 401.43207240000004 503.0024546 C 324.7705801 503.0024546 262.20577180000004 442.6438443 258.6753162 366.84065050000004 C 258.5529159 364.5853726 258.5038361 362.32889760000006 258.5038361 360.04967840000006 L 178.8026865 360.04967840000006 C 178.8026865 410.08596320000004 199.07714389999998 455.39143150000007 231.8795264 488.1695734000001 C 264.657369 520.9716566000001 309.9631366 541.2464133000001 360.0000199 541.2464133000001 C 438.4265903 541.2464133000001 505.232614 491.40525070000007 530.435105 421.68197010000006 C 517.2942807000001 449.1894174000001 495.5980046 471.84275010000005 468.8019155 486.1596946000001 Z M 488.1205134 231.8304267 C 455.3426708 199.0283435 410.0369032 178.7535868 360.0000199 178.7535868 C 281.5734495 178.7535868 214.76742579999998 228.59474939999998 189.56493479999997 298.31803 C 212.5609285 250.21740570000003 261.6664922 216.99874250000002 318.5679674 216.99874250000002 C 395.2294597 216.99874250000002 457.794268 277.3573528 461.32472359999997 353.16054660000003 C 461.44712389999995 355.41582450000004 461.49620369999997 357.67110240000005 461.49620369999997 359.9515187 L 541.1973532999999 359.9515187 C 541.1973532999999 309.9140368 520.9228959 264.6085685 488.12051339999994 231.8304267 Z" stroke-linecap="round" />
</g>
		<g transform="matrix(0.6147208173257124 0 0 0.6147208173257124 0.00001220220821096518 0.000367879673092375)"  >
<path style="stroke: none; stroke-width: 1; stroke-dasharray: none; stroke-linecap: butt; stroke-dashoffset: 0; stroke-linejoin: miter; stroke-miterlimit: 4; fill: rgb(29,107,170); fill-rule: nonzero; opacity: 1;"  paint-order="stroke"  transform=" translate(-360.00001984999994, -360.0005985)" d="M 468.7773756 486.1596946 C 403.44225040000003 529.3571245 256.93477790000003 507.9535318 227.19719120000002 371.88988730000005 L 228.07943100000003 360.04967840000006 L 258.50383600000004 360.04967840000006 C 258.50383600000004 362.3288977000001 258.55291580000005 364.5853726000001 258.67531610000003 366.84065050000004 C 262.2057717 442.64384430000007 324.7705801 503.0024546000001 401.4320723000001 503.0024546000001 C 425.77656420000005 503.0024546000001 448.72317870000006 496.92134440000007 468.77737550000006 486.1596946000001 Z M 318.5679674 216.9987424 C 395.2294597 216.9987424 457.794268 277.3573527 461.32472359999997 353.1605465 C 461.44712389999995 355.4158244 461.49620369999997 357.6722994 461.49620369999997 359.9515186 L 491.92060869999995 359.9515186 C 491.92060869999995 359.9515186 492.8028484999999 348.1113097 492.8028484999999 348.1113097 C 463.0652617999999 212.04766519999998 316.55778929999997 190.6440725 251.22266409999992 233.8415024 C 271.2768608999999 223.07985259999998 294.22347549999995 216.9987424 318.5679672999999 216.9987424 Z" stroke-linecap="round" />
</g>
		<g transform="matrix(0.6147208173257124 0 0 0.6147208173257124 0 -0.0017870241520654417)"  >
<path style="stroke: none; stroke-width: 1; stroke-dasharray: none; stroke-linecap: butt; stroke-dashoffset: 0; stroke-linejoin: miter; stroke-miterlimit: 4; fill: rgb(26,72,108); fill-rule: nonzero; opacity: 1;"  paint-order="stroke"  transform=" translate(-360, -359.997093)" d="M 541.2036379 359.9459497 C 541.2036379 369.67846710000003 523.3627318 377.56823130000004 501.35485869999997 377.56823130000004 C 479.3469855999999 377.56823130000004 461.50607949999994 369.67846710000003 461.50607949999994 359.9459497 C 461.50607949999994 350.2134323 479.3469855999999 342.3236681 501.35485869999997 342.3236681 C 523.3627318 342.3236681 541.2036379 350.2134323 541.2036379 359.9459497 Z M 218.6451413 377.6705179 C 240.6530143 377.6705179 258.4939205 369.7807537 258.4939205 360.0482364 C 258.4939205 350.315719 240.6530144 342.4259548 218.6451413 342.4259548 C 196.63726830000002 342.4259548 178.7963621 350.315719 178.7963621 360.0482363 C 178.7963621 369.7807537 196.63726820000002 377.6705179 218.6451413 377.6705179 Z" stroke-linecap="round" />
</g>
		<g transform="matrix(0.6147208173257124 0 0 0.6147208173257124 -6.147212161522e-8 -0.0017870241520654417)"  >
<path style="stroke: none; stroke-width: 1; stroke-dasharray: none; stroke-linecap: butt; stroke-dashoffset: 0; stroke-linejoin: miter; stroke-miterlimit: 4; fill: rgb(99,127,148); fill-rule: nonzero; opacity: 1;"  paint-order="stroke"  transform=" translate(-359.99999990000003, -359.997093)" d="M 479.1553587 355.233058 C 486.3326055 352.4335312 493.8690328 358.579444 492.67279990000003 366.234142 C 491.80298930000004 371.8000627 490.62342600000005 376.9419183 489.19940390000005 381.68841050000003 C 480.08653250000003 412.05591530000004 460.83760670000004 426.4060405 447.97227150000003 432.83311430000003 C 436.6904903 438.4744706 424.28856170000006 441.2220866 411.71530950000005 441.2220866 C 388.44592930000005 441.2220866 364.51861870000005 431.85216510000004 345.73250470000005 414.11722610000004 C 337.88641700000005 406.70920300000006 351.11730220000004 390.27381210000004 358.96309240000005 397.6818352 C 381.6723989000001 419.07227720000003 414.80984280000007 425.3999387 439.54172020000004 413.0380622 C 454.52659070000004 405.5557792 465.00410260000007 391.99137160000004 470.29134070000003 373.6671444 C 471.26470620000003 370.2637072 472.070398 366.6914698 472.6918352 362.9677425 C 473.27419150000003 359.478193 475.6928165 356.6030052 478.9639177 355.3082793 C 479.02752660000004 355.28310239999996 479.0913406 355.25802849999997 479.15535850000003 355.2330579 Z M 241.0360821 364.6859067 C 244.3071833 363.3911808 246.72580839999998 360.515993 247.3081646 357.02644349999997 C 247.9296018 353.30271619999996 248.7352936 349.73047879999996 249.7086591 346.3270416 C 254.9958973 328.0028144 265.4734091 314.4384068 280.4582796 306.9561238 C 305.190157 294.5942473 338.32760090000005 300.9219087 361.0369074 322.3123508 C 368.8826977 329.72037389999997 382.1135828 313.284983 374.2674951 305.8769599 C 355.4813811 288.1420209 331.5540705 278.7720994 308.2846903 278.7720994 C 295.7114381 278.7720994 283.30950950000005 281.5197154 272.02772830000004 287.1610717 C 259.16239310000003 293.58814559999996 239.91346730000004 307.9382708 230.80059590000002 338.3057755 C 229.37657380000002 343.0522676 228.19701060000003 348.1941233 227.3271999 353.760044 C 226.130967 361.414742 233.6673943 367.5606548 240.84464110000002 364.761128 C 240.90865900000003 364.73615739999997 240.972473 364.7110835 241.03608190000003 364.6859066 Z" stroke-linecap="round" />
</g>
		<g transform="matrix(0.6147208173257124 0 0 0.6147208173257124 2.576678070909e-8 -0.001787054888069406)"  >
<path style="stroke: none; stroke-width: 1; stroke-dasharray: none; stroke-linecap: butt; stroke-dashoffset: 0; stroke-linejoin: miter; stroke-miterlimit: 4; fill: rgb(99,127,148); fill-rule: nonzero; opacity: 1;"  paint-order="stroke"  transform=" translate(-360.0000000419162, -359.99709295)" d="M 519.5997772 353.3121008 C 523.9966883 354.3955299 526.9429243999999 358.5828836 526.5405588 363.1219573 C 526.0439788 368.723859 525.2897769 374.17387940000003 524.2865467 379.48097520000005 C 516.8306962 419.26750880000003 495.46164030000006 450.3955786 462.95714210000006 467.49331980000005 C 445.82775160000006 476.52068760000003 426.79803680000003 480.91160310000004 407.5488136000001 480.91160310000004 C 377.14005570000006 480.91160310000004 346.21970640000006 469.9462917 321.43934680000007 448.89960110000004 C 315.10423850000006 443.52773640000004 326.7268824000001 428.1235998 333.0619907000001 433.4954645 C 368.00279450000005 463.17666410000004 416.8811934000001 469.7259075 454.6729298000001 449.8326407 C 470.77854250000007 441.34425600000003 495.1445725000001 422.382831 504.6476812000001 382.81668160000004 C 506.2360659000001 376.28126440000005 507.4086319000001 369.1666468 508.06101980000005 361.43787970000005 C 508.5378863000001 355.78849570000006 513.9419761 351.93712430000005 519.4166972 353.26730380000004 C 519.4778332000001 353.2821579 519.5388602 353.29709030000004 519.5997774 353.31210070000003 Z M 200.5833029 366.7268821 C 206.0580239 368.0570616 211.4621138 364.2056902 211.9389803 358.5563062 C 212.5913682 350.82753909999997 213.7639342 343.7129215 215.3523189 337.1775043 C 224.8554275 297.61135490000004 249.22145749999999 278.6499299 265.3270703 270.1615452 C 303.11880659999997 250.26827839999999 351.99720560000003 256.81752179999995 386.9380094 286.49872139999997 C 393.2731177 291.87058609999997 404.8957616 276.4664496 398.5606533 271.09458479999995 C 373.7802937 250.04789419999994 342.8599444 239.08258279999995 312.4511865 239.08258279999995 C 293.2019633 239.08258279999995 274.1722485 243.47349829999996 257.042858 252.50086609999997 C 224.53835980000002 269.59860729999997 203.16930390000002 300.72667709999996 195.71345340000002 340.51321069999995 C 194.71022320000003 345.8203065999999 193.9560212 351.27032699999995 193.4594413 356.87222859999997 C 193.05707560000002 361.4113023 196.0033118 365.59865599999995 200.40022290000002 366.6820851 C 200.46114010000002 366.6970955 200.52216700000002 366.7120279 200.58330310000002 366.726882 Z" stroke-linecap="round" />
</g>
		<g transform="matrix(0.6147208173257124 0 0 0.6147208173257124 0 -0.0017869934159762124)"  >
<path style="stroke: none; stroke-width: 1; stroke-dasharray: none; stroke-linecap: butt; stroke-dashoffset: 0; stroke-linejoin: miter; stroke-miterlimit: 4; fill: rgb(26,72,108); fill-rule: nonzero; opacity: 1;"  paint-order="stroke"  transform=" translate(-360, -359.99709305000005)" d="M 327.1530466 435.4303069 C 326.5652857 434.8820493 325.944007 434.3529449 325.3834794 433.7927166 C 307.8299597 416.436414 301.5049466 393.2444003 299.6662487 384.5656504 C 304.9127026 382.7508939 308.71279799999996 377.7495398 308.71279799999996 371.865946 C 308.71279799999996 364.487213 302.73074519999994 358.4563797 295.4004935 358.4563797 C 288.0457019 358.4563797 282.088189 364.487213 282.088189 371.865946 C 282.088189 378.1661199 286.4275639 383.4619529 292.2623772 384.8840708 C 293.8805151 393.4155812 300.3036878 419.5739317 320.4802849 439.3088104 C 321.1449574 439.95163640000004 321.8233963 440.58728 322.5132072 441.21813540000005 C 321.5193407 443.53805500000004 321.46756750000003 445.60419600000006 322.54612660000004 446.33799930000004 C 323.99039030000006 447.3207929 326.90974220000004 445.54673670000005 329.06715970000005 442.3768982 C 331.22427790000006 439.20705960000004 331.80246220000004 435.8397047 330.35879710000006 434.85691110000005 C 329.59387000000004 434.33738320000003 328.41296150000005 434.60672370000003 327.1530465000001 435.43030710000005 Z M 295.4004936 377.9219177 C 292.09089720000003 377.9219177 289.3939009 375.1997829 289.3939009 371.8659459 C 289.3939009 368.53210889999997 292.09089720000003 365.8351126 295.4004936 365.8351126 C 298.71009 365.8351126 301.406787 368.5321089 301.406787 371.8659459 C 301.406787 375.19978289999995 298.7100899 377.9219177 295.4004936 377.9219177 Z M 354.1738853 398.657546 C 353.4149436 398.1416093 352.2460058 398.40257030000004 350.9962658 399.21178890000004 C 350.414191 398.4121468 349.8584518 397.60891360000005 349.3356319 396.79849790000003 C 344.8493168 389.8112065 342.7652197 382.89813330000004 341.9072206 379.22073750000004 C 345.903336 376.89124130000005 348.624573 372.55306350000006 348.624573 367.57565080000006 C 348.624573 360.19691780000005 342.6425202 354.1900259000001 335.3122685 354.1900259000001 C 327.9574769 354.1900259000001 321.9757234 360.1969179000001 321.9757234 367.57565080000006 C 321.9757234 374.8083414000001 327.6881364 380.69193520000005 334.7729889 380.96127570000004 C 335.8273074 385.54604980000005 338.40130489999996 393.97940050000005 344.1873376 402.36367140000004 C 344.8358497 403.30815880000006 345.5382299 404.2418726 346.2726317 405.17079810000007 C 345.34191059999995 407.4272731000001 345.3065971 409.4203929000001 346.3618133 410.13863420000007 C 347.80547839999997 411.1202307000001 350.7251296 409.3473716000001 352.8822478 406.17753310000006 C 355.0396653 403.0064975000001 355.6181489 399.64033960000006 354.17388520000003 398.6575460000001 Z M 335.3122685 373.6316226 C 331.9784315 373.6316226 329.28143520000003 370.9094878 329.28143520000003 367.5756508 C 329.28143520000003 364.2418138 331.97843150000006 361.5448175 335.3122685 361.5448175 C 338.6221641 361.5448175 341.3188612 364.24181380000005 341.3188612 367.5756508 C 341.3188612 370.90948779999997 338.6221641 373.6316226 335.3122685 373.6316226 Z M 392.8469534 284.5638792 C 393.4347143 285.1121368 394.055993 285.64124119999997 394.6165206 286.2014695 C 412.1700403 303.55777209999997 418.4950534 326.74978589999995 420.3337513 335.4285357 C 415.0872974 337.2432922 411.28720200000004 342.2446463 411.28720200000004 348.12824009999997 C 411.28720200000004 355.5069731 417.26925480000006 361.53780639999997 424.5995065 361.53780639999997 C 431.9542981 361.53780639999997 437.911811 355.5069731 437.911811 348.12824009999997 C 437.911811 341.82806619999997 433.5724361 336.53223319999995 427.7376228 335.11011529999996 C 426.1194849 326.57860489999996 419.6963122 300.4202544 399.5197151 280.68537569999995 C 398.8550426 280.04254969999994 398.1766037 279.40690609999996 397.4867928 278.7760506999999 C 398.4806593 276.45613109999994 398.53243249999997 274.3899900999999 397.45387339999996 273.65618679999994 C 396.00960969999994 272.67339319999996 393.09025779999996 274.4474493999999 390.93284029999995 277.61728789999995 C 388.77572209999994 280.78712649999994 388.19753779999996 284.15448139999995 389.64120289999994 285.13727499999993 C 390.40612999999996 285.65680289999995 391.58703849999995 285.38746239999995 392.8469534999999 284.56387899999993 Z M 424.5995064 342.0722684 C 427.90910279999997 342.0722684 430.6060991 344.7944032 430.6060991 348.1282402 C 430.6060991 351.4620772 427.90910279999997 354.1590735 424.5995064 354.1590735 C 421.28991 354.1590735 418.593213 351.46207719999995 418.593213 348.1282402 C 418.593213 344.79440320000003 421.2899101 342.0722684 424.5995064 342.0722684 Z M 365.8261147 321.3366401 C 366.5850564 321.8525768 367.7539942 321.5916158 369.0037342 320.7823972 C 369.585809 321.5820393 370.1415482 322.3852725 370.6643681 323.1956882 C 375.1506832 330.1829796 377.2347803 337.0960528 378.0927794 340.7734486 C 374.096664 343.1029448 371.375427 347.44112259999997 371.375427 352.4185353 C 371.375427 359.7972683 377.3574798 365.80416019999996 384.6877315 365.80416019999996 C 392.0425231 365.80416019999996 398.0242766 359.79726819999996 398.0242766 352.4185353 C 398.0242766 345.18584469999996 392.3118636 339.3022509 385.2270111 339.0329104 C 384.1726926 334.4481363 381.59869510000004 326.0147856 375.8126624 317.6305147 C 375.1641503 316.6860273 374.4617701 315.7523135 373.7273683 314.82338799999997 C 374.65808940000005 312.56691299999994 374.6934029 310.57379319999995 373.6381867 309.85555189999997 C 372.19452160000003 308.87395539999994 369.2748704 310.64681449999995 367.1177522 313.816653 C 364.9603347 316.98768859999996 364.3818511 320.3538465 365.82611479999997 321.33664009999995 Z M 384.6877315 346.3625635 C 388.0215685 346.3625635 390.71856479999997 349.0846983 390.71856479999997 352.41853530000003 C 390.71856479999997 355.75237230000005 388.02156849999994 358.4493686 384.6877315 358.4493686 C 381.3778359 358.4493686 378.6811388 355.7523723 378.6811388 352.41853530000003 C 378.6811388 349.0846983 381.3778359 346.3625635 384.6877315 346.3625635 Z" stroke-linecap="round" />
</g>
</g>
</g>
<g transform="matrix(1.9211538461538462 0 0 1.9211538461538462 640.1647389423078 712.8396587218417)" id="text-logo"  >
<g style=""  paint-order="stroke"   >
		<g transform="matrix(1 0 0 1 0 0)" id="text-logo-path-0"  >
<path style="stroke: none; stroke-width: 0; stroke-dasharray: none; stroke-linecap: butt; stroke-dashoffset: 0; stroke-linejoin: miter; stroke-miterlimit: 4; fill: rgb(13,46,74); fill-rule: nonzero; opacity: 1;"  paint-order="stroke"  transform=" translate(-164.295, 17.15)" d="M 18.91 0.59 C 27.83 0.59 33.91 -5.05 34.05 -16.37 L 34.05 -18.13 L 18.91 -18.13 L 18.91 -12.84 L 28.47 -12.84 C 27.98 -7.64 24.21 -4.8 18.91 -4.8 C 12.2 -4.8 7.74 -9.7 7.74 -17.15 L 2.4 -22.49 C 1.96 -20.87 1.76 -19.06 1.76 -17.15 C 1.76 -6.47 8.62 0.59 18.91 0.59 Z M 6.27 -29.79 L 10.44 -25.63 C 12.4 -28.08 15.34 -29.5 18.91 -29.5 C 22.49 -29.5 25.48 -28.08 27.44 -25.63 L 31.75 -29.6 C 28.71 -32.98 24.3 -34.89 18.91 -34.89 C 13.62 -34.89 9.26 -33.03 6.27 -29.79 Z M 40.43 -34.3 L 40.43 0 L 54.64 0 L 59.93 -5.29 L 46.3 -5.29 L 46.3 -34.3 Z M 64.29 -17.15 C 64.29 -6.47 71.15 0.59 81.44 0.59 L 81.44 -4.8 C 74.72 -4.8 70.27 -9.7 70.27 -17.15 C 70.27 -20.68 71.3 -23.67 73.06 -25.82 L 68.99 -30.04 C 66 -26.9 64.29 -22.49 64.29 -17.15 Z M 81.44 -34.89 L 81.44 -29.5 C 88.15 -29.5 92.61 -24.6 92.61 -17.15 C 92.61 -13.62 91.58 -10.63 89.82 -8.48 L 93.88 -4.26 C 96.87 -7.4 98.59 -11.81 98.59 -17.15 C 98.59 -27.83 91.73 -34.89 81.44 -34.89 Z M 104.96 -34.3 L 110.84 -28.91 L 114.02 -28.91 C 117.6 -28.91 119.36 -27.39 119.36 -24.5 C 119.36 -21.61 117.6 -19.85 114.02 -19.85 L 110.84 -19.85 L 104.96 -25.73 L 104.96 0 L 113.83 0 C 117.99 0 121.52 -0.83 123.77 -2.79 L 119.46 -7.11 C 118.53 -5.98 116.87 -5.39 114.42 -5.39 L 110.84 -5.39 L 110.84 -14.46 L 114.42 -14.46 C 118.38 -14.46 120.34 -13.08 120.34 -10 L 126.27 -10 C 125.98 -13.72 123.92 -16.27 119.41 -17.3 C 123.53 -18.38 125.34 -21.27 125.34 -25.68 C 125.34 -31.7 120.34 -34.3 113.53 -34.3 Z M 133.67 0 L 137.35 -7.74 L 152.14 -7.74 L 155.82 0 L 161.7 0 L 144.75 -34.89 L 142.05 -29.35 L 144.75 -23.42 L 149.65 -13.03 L 134.11 -13.03 L 127.79 0 Z M 166.7 -34.3 L 166.7 0 L 180.91 0 L 186.2 -5.29 L 172.58 -5.29 L 172.58 -34.3 Z M 206.14 0 L 212.02 0 L 212.02 -11.52 L 215.5 -11.52 C 219.03 -11.52 222.12 -12.74 224.32 -14.95 L 220.5 -19.01 C 219.42 -17.54 217.61 -16.91 214.96 -16.91 L 212.02 -16.91 L 206.14 -22.3 Z M 206.14 -34.3 L 212.02 -28.91 L 214.96 -28.91 C 219.37 -28.91 221.53 -27.1 221.53 -22.93 L 227.51 -22.93 C 227.51 -29.74 222.22 -34.3 215.5 -34.3 Z M 233.88 -34.3 L 233.88 0 L 248.09 0 L 253.38 -5.29 L 239.76 -5.29 L 239.76 -34.3 Z M 264.65 -20.38 L 258.77 -14.5 C 258.77 -4.95 264.94 0.59 273.67 0.59 C 282.39 0.59 288.51 -4.95 288.51 -14.5 L 288.51 -28.42 L 282.63 -34.3 L 282.63 -14.7 C 282.63 -8.58 279.79 -4.8 273.67 -4.8 C 267.49 -4.8 264.65 -8.53 264.65 -14.7 Z M 258.77 -23.28 L 264.65 -29.16 L 264.65 -34.3 L 258.77 -34.3 Z M 311.69 0.59 C 320.61 0.59 326.68 -5.05 326.83 -16.37 L 326.83 -18.13 L 311.69 -18.13 L 311.69 -12.84 L 321.24 -12.84 C 320.75 -7.64 316.98 -4.8 311.69 -4.8 C 304.98 -4.8 300.52 -9.7 300.52 -17.15 L 295.18 -22.49 C 294.74 -20.87 294.54 -19.06 294.54 -17.15 C 294.54 -6.47 301.4 0.59 311.69 0.59 Z M 299.05 -29.79 L 303.21 -25.63 C 305.17 -28.08 308.11 -29.5 311.69 -29.5 C 315.27 -29.5 318.26 -28.08 320.22 -25.63 L 324.53 -29.6 C 321.49 -32.98 317.08 -34.89 311.69 -34.89 C 306.4 -34.89 302.04 -33.03 299.05 -29.79 Z" stroke-linecap="round" />
</g>
</g>
</g>
</svg>